<?xml version="1.0" encoding="utf-8"?>
<!-- Generator: Adobe Illustrator 19.2.0, SVG Export Plug-In . SVG Version: 6.00 Build 0)  -->
<svg version="1.1" id="レイヤー_1" xmlns="http://www.w3.org/2000/svg" xmlns:xlink="http://www.w3.org/1999/xlink" x="0px"
	 y="0px" viewBox="0 0 195.9 170.6" style="enable-background:new 0 0 195.9 170.6;" xml:space="preserve">
<style type="text/css">
	.st0{fill:#FFFFFF;stroke:#3E3E3E;stroke-miterlimit:10;}
</style>
<g>
	<g>
		<path class="st0" d="M165.5,91.8l8.5,8.1L186.2,87l-8.7-8.2c3-4.9,4.9-10.1,5.9-15.6l12-0.4l-0.5-17.6l-11.9,0.4
			c-1.2-5.4-3.5-10.6-6.7-15.3l8-8.5L171.4,9.7l-7.9,8.3c-4.9-3.2-10.3-5.3-15.9-6.3l-0.3-11.1L129.7,1l0.3,10.8
			c-5.7,1.2-11.2,3.5-16.1,7l-7.7-7.3L94.1,24.4l7.6,7.2c-3.3,5.2-5.4,10.8-6.4,16.6l-10.4,0.3l0.5,17.6l10.4-0.3
			c1.3,5.7,3.8,11.2,7.4,16.1L96,89.7l12.8,12.1l7.5-7.9c5.1,3.1,10.6,5,16.3,5.9l0.3,11.2l17.6-0.5l-0.3-11.5
			C155.6,97.6,160.8,95.2,165.5,91.8z M119,78.1c-12.3-11.6-12.9-31.1-1.3-43.4c11.6-12.3,31.1-12.9,43.4-1.3
			c12.3,11.6,12.9,31.1,1.3,43.4C150.8,89.1,131.4,89.7,119,78.1z"/>
	</g>
	<g>
		<path class="st0" d="M81.1,151l8.5,8.1l12.1-12.8l-8.7-8.2c3-4.9,4.9-10.1,5.9-15.6l12-0.4l-0.5-17.6l-11.9,0.4
			c-1.2-5.4-3.5-10.6-6.7-15.3l8-8.5L87,68.9l-7.9,8.3c-4.9-3.2-10.3-5.3-15.9-6.3l-0.3-11.1l-17.6,0.5l0.3,10.8
			c-5.7,1.2-11.2,3.5-16.1,7l-7.7-7.3L9.7,83.6l7.6,7.2c-3.3,5.2-5.4,10.8-6.4,16.6l-10.4,0.3L1,125.4l10.4-0.3
			c1.3,5.7,3.8,11.2,7.4,16.1l-7.3,7.7L24.4,161l7.5-7.9c5.1,3.1,10.6,5,16.3,5.9l0.3,11.2l17.6-0.5l-0.3-11.5
			C71.2,156.8,76.5,154.4,81.1,151z M34.7,137.3c-12.3-11.6-12.9-31.1-1.3-43.4C45,81.5,64.5,80.9,76.8,92.6s12.9,31.1,1.3,43.4
			C66.4,148.3,47,148.9,34.7,137.3z"/>
	</g>
</g>
</svg>
