<?xml version="1.0" encoding="utf-8"?>
<!-- Generator: Adobe Illustrator 19.1.0, SVG Export Plug-In . SVG Version: 6.00 Build 0)  -->
<!DOCTYPE svg PUBLIC "-//W3C//DTD SVG 1.1//EN" "http://www.w3.org/Graphics/SVG/1.1/DTD/svg11.dtd">
<svg version="1.1" id="レイヤー_1" xmlns="http://www.w3.org/2000/svg" xmlns:xlink="http://www.w3.org/1999/xlink" x="0px"
	 y="0px" viewBox="0 0 385.7 475.4" enable-background="new 0 0 385.7 475.4" xml:space="preserve">
<g>
	<path fill="#FFFFFF" d="M50.7,456.6v-12.3H37.8c-1,0-1.8-0.3-2.3-0.8c-0.5-0.6-0.8-1.4-0.8-2.5c0-1.3,0.2-2.2,0.7-2.7
		c0.4-0.5,1.3-0.7,2.6-0.7h22.4c0.9,0,1.6,0.3,2,0.9c0.4,0.6,0.6,1.4,0.6,2.6c0,1.3-0.3,2.2-0.9,2.6c-0.6,0.5-1.6,0.7-3,0.7h-0.7
		v14.4v1.2c0,0.9-0.1,1.6-0.3,1.9c-0.2,0.4-0.6,0.7-1.2,1.1c-2,1.2-4.8,2.2-8.6,3c-3.8,0.8-7.6,1.2-11.4,1.2c-9.3,0-16.7-3-22.4-8.9
		s-8.5-13.6-8.5-23.1s2.8-17.3,8.4-23.5c5.6-6.2,12.7-9.3,21.3-9.3c2.3,0,4.7,0.3,7.1,0.8c2.4,0.5,4.8,1.3,7.4,2.4
		c0.3-0.9,0.8-1.5,1.4-1.9c0.6-0.4,1.4-0.6,2.4-0.6c1.6,0,2.7,0.5,3.2,1.5c0.5,1,0.8,3.2,0.8,6.7v7c0,1.7-0.3,2.9-0.9,3.5
		c-0.6,0.7-1.6,1-3.1,1c-1.8,0-3.1-1.1-3.9-3.3c-0.3-0.7-0.5-1.2-0.7-1.5c-1.3-2.7-3.1-4.8-5.5-6.3c-2.4-1.5-5.1-2.2-8.2-2.2
		c-6.2,0-11.1,2.2-14.8,6.7c-3.7,4.5-5.5,10.5-5.5,18.1c0,7.8,2,14.1,6.1,18.7c4.1,4.6,9.5,6.9,16.3,6.9c2,0,4-0.3,6.1-0.8
		C45.9,458.5,48.2,457.7,50.7,456.6z"/>
	<path fill="#FFFFFF" d="M102.7,458.2h16.6c1.3,0,2.3,0.3,3,0.9c0.6,0.6,1,1.5,1,2.7c0,1.4-0.3,2.4-0.9,2.9
		c-0.6,0.5-1.7,0.8-3.3,0.8H78.8c-1.4,0-2.4-0.3-3.1-0.9c-0.7-0.6-1-1.6-1-2.8c0-1.2,0.4-2.1,1.1-2.7c0.7-0.6,1.8-0.9,3.3-0.9h15.8
		V425H84.7c-1.4,0-2.5-0.3-3.2-1c-0.7-0.6-1.1-1.6-1.1-2.8s0.3-2.1,1-2.7c0.7-0.6,1.7-0.9,3.1-0.9h15.2c0.9,0,1.7,0.2,2.2,0.6
		c0.5,0.4,0.8,0.9,0.8,1.6V458.2z M93.1,402.7c0-3.7,0.3-6.1,1-7c0.7-1,2.1-1.5,4.3-1.5c2.1,0,3.6,0.4,4.2,1.2c0.7,0.8,1,2.7,1,5.8
		c0,3-0.3,4.8-1,5.5c-0.6,0.7-2.1,1.1-4.3,1.1c-2.2,0-3.7-0.3-4.3-1S93.1,404.8,93.1,402.7z"/>
	<path fill="#FFFFFF" d="M139,461.7v-9.2c0-1.5,0.3-2.6,0.9-3.3s1.5-1,2.8-1c1.4,0,2.5,1,3.4,2.9c0.6,1.2,1.1,2.1,1.5,2.6
		c1.5,1.9,3.6,3.4,6.4,4.5c2.8,1.1,6,1.7,9.4,1.7c3.7,0,6.6-0.7,8.8-2.2c2.2-1.5,3.3-3.4,3.3-5.9c0-2.5-0.9-4.2-2.7-5.2
		c-1.8-1-4.8-1.6-9.1-1.6h-2.8c-7,0-12.4-1.2-16.1-3.7c-3.7-2.5-5.5-6-5.5-10.7c0-4.6,1.8-8.1,5.4-10.6c3.6-2.5,8.7-3.8,15.2-3.8
		c2.7,0,5.4,0.4,8.1,1.1c2.8,0.7,4.2,1.1,4.4,1.1c0.4,0,1.1-0.3,2.2-1c1.1-0.7,2.1-1,3.2-1c1.2,0,2,0.4,2.6,1.3
		c0.6,0.9,0.9,2.2,0.9,3.9v6.1c0,1.8-0.3,3.2-0.8,4s-1.4,1.2-2.6,1.2c-1,0-2.3-0.9-3.8-2.6c-1.1-1.2-2-2.1-2.6-2.7
		c-1.8-1.7-3.8-2.9-5.9-3.7c-2.1-0.7-4.5-1.1-7.3-1.1c-3.2,0-5.9,0.7-7.8,2.1c-2,1.4-3,3.3-3,5.5c0,2.2,1,3.7,3.1,4.7
		c2,0.9,6.4,1.5,13.2,1.6c7.2,0.2,12.4,1.4,15.7,3.8c3.3,2.3,5,5.9,5,10.8c0,4.7-1.8,8.4-5.5,11.2c-3.7,2.8-8.6,4.2-14.8,4.2
		c-2,0-4.2-0.2-6.6-0.5c-2.4-0.4-5.5-1-9.1-1.8c-1.2,0.8-2.2,1.4-3.1,1.8c-0.9,0.4-1.6,0.6-2.2,0.6c-1.2,0-2.1-0.4-2.8-1.3
		C139.3,464.5,139,463.3,139,461.7z"/>
	<path fill="#FFFFFF" d="M212.3,446.4c0,4.4,0.9,7.5,2.7,9.5c1.8,2,4.7,3,8.7,3c3.8,0,7-1.2,9.7-3.6s4-5.4,4-9V425h-7.1
		c-1.3,0-2.3-0.3-2.9-0.9c-0.6-0.6-0.9-1.5-0.9-2.7c0-1.3,0.3-2.3,1-2.9c0.7-0.6,1.7-0.9,3.2-0.9h11c1.3,0,2.2,0.3,2.8,0.9
		c0.5,0.6,0.8,2,0.8,4.2v35.5h2.4c1.7,0,2.9,0.3,3.7,0.8c0.7,0.6,1.1,1.5,1.1,2.7c0,1.2-0.4,2.2-1.1,2.8s-1.7,0.9-3.1,0.9h-7.9
		c-0.9,0-1.7-0.2-2.2-0.6c-0.5-0.4-0.8-0.9-0.8-1.6v-3.5c-3.3,2.6-6.2,4.3-8.5,5.3c-2.4,0.9-4.9,1.4-7.5,1.4c-5.7,0-10-1.5-12.8-4.5
		c-2.8-3-4.3-7.6-4.3-13.7V425h-1.1c-2.3,0-4-0.3-4.8-0.8c-0.9-0.6-1.3-1.5-1.3-2.9c0-1.2,0.3-2.1,1-2.7c0.7-0.6,1.7-0.9,3.1-0.9
		h7.8c1.2,0,2,0.2,2.5,0.7c0.5,0.5,0.7,1.6,0.7,3.2V446.4z"/>
	<path fill="#FFFFFF" d="M304.5,420.7v-0.2c0-1.1,0.3-2,1-2.5c0.7-0.5,1.7-0.8,3.1-0.8c1.4,0,2.4,0.4,2.9,1.2
		c0.5,0.8,0.8,2.5,0.8,5.1v9.6c0,1.3-0.3,2.2-1,2.9c-0.7,0.6-1.6,1-3,1c-0.9,0-1.7-0.3-2.4-0.8c-0.7-0.5-1.5-1.6-2.5-3.3
		c-1.7-2.8-3.7-4.9-6-6.3c-2.4-1.4-5.1-2.2-8.2-2.2c-5.4,0-9.8,1.6-13.1,4.8c-3.4,3.2-5.1,7.3-5.1,12.3c0,5.1,1.6,9.4,4.8,12.6
		s7.4,4.9,12.5,4.9c2.3,0,4.5-0.3,6.6-1c2.1-0.6,4.1-1.6,5.9-2.9c0.7-0.4,1.5-1.1,2.6-1.9c2.2-1.8,4-2.7,5.3-2.7
		c1.1,0,1.9,0.3,2.6,1c0.7,0.7,1,1.5,1,2.6c0,2.7-2.6,5.5-7.7,8.4c-5.2,2.8-10.6,4.3-16.4,4.3c-7.5,0-13.7-2.4-18.7-7.2
		c-5-4.8-7.5-10.8-7.5-18c0-7.2,2.5-13.2,7.5-18s11.2-7.2,18.7-7.2c2.6,0,5.3,0.4,7.9,1.1C298.7,418.1,301.5,419.2,304.5,420.7z"/>
	<path fill="#FFFFFF" d="M379.8,441.6c0,7.4-2.5,13.4-7.6,18.1c-5,4.7-11.6,7-19.6,7c-8,0-14.5-2.3-19.6-7c-5-4.7-7.6-10.7-7.6-18.1
		c0-7.4,2.5-13.4,7.6-18.1c5-4.7,11.6-7,19.6-7c8,0,14.5,2.3,19.6,7C377.2,428.2,379.8,434.2,379.8,441.6z M352.6,459.5
		c5.3,0,9.7-1.7,13.1-5.1c3.4-3.4,5.1-7.7,5.1-12.9c0-5.2-1.7-9.5-5.1-12.9c-3.4-3.4-7.8-5.1-13.1-5.1c-5.3,0-9.6,1.7-13,5.1
		c-3.4,3.4-5.1,7.7-5.1,12.9c0,5.3,1.7,9.6,5.1,12.9C342.9,457.8,347.3,459.5,352.6,459.5z"/>
</g>
<g>
	<polygon fill="#FFFFFF" points="299.8,98.3 111.8,98.3 111.8,146.3 299.8,146.3 299.8,312.3 111.8,312.3 111.8,360.3 299.8,360.3 
		347.8,360.3 347.8,312.3 347.8,146.3 347.8,98.3 	"/>
	<polygon fill="#FFFFFF" points="278.8,278.3 278.8,230.3 278.8,166.3 229.8,166.3 229.8,230.3 86.8,230.3 86.8,57.3 278.8,57.3 
		278.8,8.3 86.8,8.3 35.8,8.3 35.8,57.3 35.8,230.3 35.8,278.3 86.8,278.3 229.8,278.3 	"/>
</g>
</svg>
